<svg xmlns="http://www.w3.org/2000/svg" viewBox="0 0 64 64">
  <rect x="2" y="2" width="60" height="60" rx="15" fill="#35c2ca"/>
  <g fill="#101614" transform="translate(16.4 10.7) scale(1.42)">
    <circle cx="10.93" cy="3.22" r="3.22"/>
    <path d="m21.18 9.39-2.04 4.34a8.97 8.97 0 0 1 2 5.57c0 6.06-4.74 9.7-10.18 9.7S.82 25.2.82 19.13 5.44 9.39 11.53 9.39h9.65Zm-4.83 9.74a5.25 5.25 0 0 0-5.1-5.44h-.29a5.33 5.33 0 0 0-5.36 5.13v.31a5.26 5.26 0 0 0 5 5.44h.36a5.26 5.26 0 0 0 5.4-5.1v-.34Z"/>
  </g>
</svg>
